<?xml version="1.0" encoding="UTF-8"?>
<svg width="470px" height="100px" viewBox="0 0 470 100" version="1.1" xmlns="http://www.w3.org/2000/svg" xmlns:xlink="http://www.w3.org/1999/xlink">
    <!-- Generator: Sketch 53 (72520) - https://sketchapp.com -->
    <title>Group 17</title>
    <desc>Created with Sketch.</desc>
    <g id="Page-1" stroke="none" stroke-width="1" fill="none" fill-rule="evenodd">
        <g id="Logo" transform="translate(-165.000000, -239.000000)" fill="#E23744">
            <g id="Group-17" transform="translate(165.000000, 239.000000)">
                <path d="M71.5021605,25.6618827 L71.0756173,39.2341049 L35.6796296,77.7121914 C50.4635802,77.7121914 59.8453704,77.5618827 65.2478395,77.2640432 C63.6839506,84.5720679 62.4052469,90.5375 61.1253086,99.4850309 C54.0175926,98.8893519 42.929321,98.7399691 31.8419753,98.7399691 C19.475,98.7399691 8.6712963,98.8893519 2.13162821e-14,99.4850309 L0.283641975,85.7640432 L35.6796296,47.4368827 C20.1864198,47.4368827 14.4993827,47.5856481 8.10185185,47.7353395 C9.52469136,40.8742284 10.5188272,33.2689815 11.5138889,25.6618827 C22.7438272,26.1100309 27.1512346,26.2584877 41.792284,26.2584877 C55.2962963,26.2584877 62.9725309,26.1100309 71.5021605,25.6618827 Z M104.766173,79.700463 C111.590247,79.700463 116.991481,68.6637346 116.991481,55.2412037 C116.991481,45.9955247 114.005988,41.5214506 109.03037,41.5214506 C102.207222,41.5214506 96.664321,52.4072531 96.664321,65.9782407 C96.664321,75.0773148 99.6498148,79.700463 104.766173,79.700463 Z M111.731914,21.6353395 C132.770494,21.6353395 143.147346,35.8032407 143.147346,54.1476852 C143.147346,78.9035494 125.662778,99.4853395 102.492099,99.4853395 C81.7371605,99.4853395 71.0757407,85.3158951 71.0757407,66.8239198 C71.0757407,42.2171296 88.7019753,21.6353395 111.731914,21.6353395 Z M429.821481,79.6236111 C436.645556,79.6236111 442.048025,68.5871914 442.048025,55.1643519 C442.048025,45.9186728 439.061296,41.4445988 434.086914,41.4445988 C427.262531,41.4445988 421.718395,52.3307099 421.718395,65.9016975 C421.718395,75.000463 424.703889,79.6236111 429.821481,79.6236111 Z M437.320864,20.6118827 C458.636296,20.6118827 469.150185,34.9665123 469.150185,53.5513889 C469.150185,78.633179 451.43537,99.4853395 427.960062,99.4853395 C406.93321,99.4853395 396.131975,85.1313272 396.131975,66.3939815 C396.131975,41.4637346 413.99,20.6118827 437.320864,20.6118827 Z M262.697562,48.4790741 L254.121636,99.4852469 L229.732438,99.4852469 L236.114846,54.7435802 C236.683364,50.2701235 236.826265,46.9883333 233.272562,46.9883333 C227.158673,46.9883333 219.198796,58.7707407 217.35034,68.762716 L215.0775,84.1232099 C214.36608,89.4932716 213.512685,95.6068519 213.369784,99.4852469 L186.646327,99.4852469 C188.068241,93.0725926 189.488611,82.93 190.768858,74.1312346 L193.3275,56.8318519 C194.322562,50.4182716 194.464537,46.9883333 190.910525,46.9883333 C184.79787,46.9883333 176.837994,58.7707407 174.989537,68.762716 L172.714537,84.1232099 C172.004043,89.4932716 171.008981,95.6068519 170.867006,99.4852469 L144.426265,99.4852469 C145.848179,93.0725926 147.269784,82.93 148.549722,74.1312346 L151.818858,51.7605556 C153.09787,43.2599383 153.524414,34.3117901 153.239537,27.4516049 C163.190772,27.1540741 170.298488,26.4068519 178.401574,25.0651852 C178.970093,27.4516049 179.396636,38.6364815 177.406512,48.4790741 C185.224414,33.4167284 196.596636,24.3191975 207.116389,24.3191975 C221.047253,24.3191975 222.042315,35.5040741 220.336759,47.4358642 C228.153735,32.9691975 239.242006,24.3191975 249.477191,24.3191975 C263.549722,24.3191975 264.544784,35.8040741 262.697562,48.4790741 Z M390.398333,76.0703086 L387.554815,93.6690741 C383.148642,96.0551852 374.902654,99.4851235 365.378272,99.4851235 C349.173333,99.4851235 345.904198,90.8354321 348.463148,72.4919136 L352.584136,42.9619753 L344.611605,42.9619753 L346.866852,23.8471605 L355.570864,23.4258642 L358.84,9.55549383 L383.433519,0.308580247 L380.305123,23.4258642 L397.221173,23.4258642 C396.651728,25.811358 394.662531,38.9360494 394.094321,42.9619753 L377.603272,42.9619753 L373.907593,70.2551852 C372.913765,77.2632099 373.482284,79.7999383 378.315,79.7999383 C381.868704,79.7999383 387.128272,77.7119753 390.398333,76.0703086 Z M289.50466,99.2096914 C276.875957,100.761543 268.556821,95.7498148 266.059599,84.3417901 C264.487994,77.1664815 266.665463,68.9973457 270.471636,64.1170988 C275.563611,57.7405556 283.872253,53.6442593 294.001265,52.3998148 C302.156821,51.3988889 309.026265,51.892716 315.451574,53.1103086 L315.717932,52.0072222 C315.90034,50.2467284 316.085216,48.485 315.827191,46.3760494 C315.163302,40.972963 310.89571,37.7516667 300.372253,39.0442593 C293.269167,39.9164815 286.508673,42.4856173 281.258673,45.4041358 L276.159907,29.9794444 C283.270093,25.8961111 292.23429,22.7896296 302.493858,21.5294444 C322.094167,19.1232716 335.859907,25.3751235 337.624722,39.7396296 C338.093241,43.5596914 338.149105,47.6124691 337.665463,51.2837654 C335.147253,69.0498148 333.534907,82.4127778 332.829352,91.3741975 C332.718858,92.7587654 332.728117,95.1417901 332.854969,98.5235802 L308.535525,98.5016667 C309.051883,97.0985802 309.515463,95.205679 309.929352,92.8238889 C310.20034,91.2578395 310.396636,89.2779012 310.518858,86.8865432 C305.376883,93.9387037 298.316698,98.1285185 289.50466,99.2096914 Z M297.130895,85.572963 C306.074414,84.4745062 312.234907,75.8420988 313.713611,67.2337654 L313.965772,64.9291358 C310.120093,64.0637037 304.565463,63.4078395 299.172562,64.0698765 C294.043241,64.7007407 289.765154,66.830679 287.473796,69.9211111 C285.742932,72.1399383 284.867315,74.7887037 285.254352,77.951358 C285.836759,82.6945679 291.079969,86.3155556 297.130895,85.572963 Z" id="Combined-Shape"></path>
            </g>
        </g>
    </g>
</svg>